<?xml version="1.0" encoding="UTF-8" standalone="no"?>
<!-- Created with Inkscape (http://www.inkscape.org/) -->

<svg
   xmlns:dc="http://purl.org/dc/elements/1.1/"
   xmlns:cc="http://creativecommons.org/ns#"
   xmlns:rdf="http://www.w3.org/1999/02/22-rdf-syntax-ns#"
   xmlns:svg="http://www.w3.org/2000/svg"
   xmlns="http://www.w3.org/2000/svg"
   xmlns:sodipodi="http://sodipodi.sourceforge.net/DTD/sodipodi-0.dtd"
   xmlns:inkscape="http://www.inkscape.org/namespaces/inkscape"
   width="210mm"
   height="297mm"
   viewBox="0 0 210 297"
   version="1.1"
   id="svg8"
   inkscape:version="0.92.2 (5c3e80d, 2017-08-06)"
   sodipodi:docname="logo.svg">
  <defs
     id="defs2" />
  <sodipodi:namedview
     id="base"
     pagecolor="#ffffff"
     bordercolor="#666666"
     borderopacity="1.0"
     inkscape:pageopacity="0.0"
     inkscape:pageshadow="2"
     inkscape:zoom="0.35"
     inkscape:cx="400"
     inkscape:cy="560"
     inkscape:document-units="mm"
     inkscape:current-layer="layer1"
     showgrid="false"
     inkscape:measure-start="-400,508.571"
     inkscape:measure-end="-11.4286,1045.71"
     inkscape:snap-bbox="true"
     inkscape:snap-global="true"
     inkscape:snap-bbox-midpoints="true"
     inkscape:bbox-nodes="true"
     inkscape:snap-bbox-edge-midpoints="true"
     inkscape:window-width="1366"
     inkscape:window-height="705"
     inkscape:window-x="-8"
     inkscape:window-y="-8"
     inkscape:window-maximized="1" />
  <metadata
     id="metadata5">
    <rdf:RDF>
      <cc:Work
         rdf:about="">
        <dc:format>image/svg+xml</dc:format>
        <dc:type
           rdf:resource="http://purl.org/dc/dcmitype/StillImage" />
        <dc:title></dc:title>
      </cc:Work>
    </rdf:RDF>
  </metadata>
  <g
     inkscape:label="Capa 1"
     inkscape:groupmode="layer"
     id="layer1">
    <path
       id="path3711"
       d="m 60.937187,62.25369 c -0.06325,2.579785 0.20497,5.176049 0.726773,7.700947 0.757267,2.980155 1.676212,5.917493 2.538923,8.869187 0.944026,3.056567 1.619819,6.190433 2.116625,9.348526 0.431286,2.813074 1.266584,5.53888 1.738899,8.343836 0.250939,2.335371 0.423231,4.673554 0.714894,7.005104 0.248584,1.84167 0.375034,3.69507 0.4386,5.55127 0.08572,2.08867 -0.0072,4.15972 -0.373483,6.21776 -0.326181,1.95647 -0.940565,3.76162 -1.977366,5.44896 -0.454658,0.7302 -0.963512,1.42237 -1.483263,2.10663 0,0 -10.270145,4.43008 -10.270145,4.43008 v 0 c 0.508886,-0.69703 1.108477,-1.31301 1.533966,-2.06914 1.1331,-1.54231 1.864429,-3.16408 2.176582,-5.06854 0.476798,-1.96131 0.558308,-3.94993 0.444053,-5.96236 -0.03579,-1.83383 -0.114679,-3.66758 -0.330804,-5.49035 -0.269443,-2.32327 -0.527743,-4.63874 -0.688919,-6.97197 -0.418954,-2.823417 -1.172604,-5.573271 -1.676649,-8.380328 -0.4793,-3.113485 -1.120751,-6.209819 -2.005002,-9.234602 -0.924255,-2.958967 -1.873678,-5.916601 -2.636898,-8.919768 -0.568748,-2.573247 -0.850064,-5.202936 -0.980207,-7.833341 0,0 9.993421,-5.091901 9.993421,-5.091901 z"
       inkscape:connector-curvature="0"
       style="stroke-width:0.26458332;fill:#333333" />
    <path
       id="path3715"
       d="m 30.678162,70.369035 c 1.994143,-0.457989 3.960442,-1.015204 5.965134,-1.425975 1.997282,-0.535696 4.023175,-0.905144 6.021774,-1.428395 1.436404,-0.32756 2.781107,-0.971164 4.161483,-1.481429 1.406549,-0.36636 2.700483,-1.017296 3.922818,-1.792187 1.495846,-0.724619 3.066391,-1.242642 4.585608,-1.920366 1.77047,-0.825297 3.570163,-1.563352 5.41207,-2.227689 1.599364,-0.380725 3.189296,-0.800481 4.800764,-1.134285 0.9524,-0.470897 2.031005,-0.537453 3.030792,-0.830635 0.433842,-0.127222 0.838179,-0.339818 1.263396,-0.493427 1.335876,-0.420748 2.741951,-0.476565 4.130603,-0.524057 1.569157,-0.119259 3.085394,0.0045 4.62702,0.266776 1.872626,0.166627 3.539641,0.951527 5.209638,1.741641 1.587466,0.729237 3.054207,1.702882 4.637757,2.461787 1.671632,0.655251 3.174624,1.721374 4.581424,2.828319 1.542852,1.04866 2.827023,2.462858 4.038614,3.873981 1.439965,1.677168 2.65675,3.561646 3.554603,5.580812 0.86727,1.677397 1.48909,3.46125 1.99876,5.275026 0.43593,1.631977 0.55772,3.31701 0.62294,4.997427 0.0404,1.52433 0.0297,3.049415 0.0256,4.574103 0.11217,1.414449 -0.14669,2.779779 -0.41108,4.158004 -0.31969,1.555382 -0.73504,3.079922 -1.22754,4.587936 -0.57192,1.348742 -0.86141,2.796338 -1.42448,4.144178 -0.583542,1.15804 -1.348132,2.18396 -1.86889,3.37427 -0.548225,1.21261 -1.280007,2.33083 -1.847067,3.53127 -0.600136,1.47172 -1.580896,2.75291 -2.53777,4.00945 -0.824391,1.05362 -1.797187,1.97268 -2.699356,2.95524 -3.572822,3.63639 -8.17618,6.70704 -13.203869,7.72186 -1.506824,0.29529 -2.985098,0.66377 -4.520295,0.82793 -1.317813,0.42083 -2.529049,1.02576 -3.884623,1.33482 -1.690352,0.31049 -3.418623,0.28186 -5.130552,0.30014 -1.984412,0.002 -3.968821,0.006 -5.953233,0.007 -1.585098,0.001 -3.170195,0.001 -4.755293,0.001 -1.509138,7e-5 -3.018276,4e-5 -4.527415,3e-5 -1.510585,-2e-5 -3.021174,-2e-5 -4.531759,-2e-5 -1.50763,0.0613 -2.986657,0.44334 -4.494787,0.60234 -1.533684,0.11808 -3.012712,0.59626 -4.476594,1.04344 -1.058582,0.39719 -2.200391,0.32587 -3.293435,0.50566 -0.539681,0.0888 -1.062834,0.25993 -1.598859,0.36861 -3.454198,1.60647 -8.509152,4.52033 7.489354,-4.36418 0.242128,-0.13446 -0.460951,0.31171 -0.661627,0.50259 -0.490998,0.46703 -0.605759,0.76097 -0.937969,1.33699 -0.41565,1.04046 -0.232246,0.48453 -0.529778,1.67439 0,0 -10.019407,4.87443 -10.019407,4.87443 v 0 c 0.177108,-1.35478 0.04284,-0.71434 0.380223,-1.92593 2.045703,-5.16242 7.996283,-7.43257 13.185762,-8.8448 1.613495,-0.32535 3.274025,-0.41648 4.840208,-0.96243 1.500066,-0.43862 3.036194,-0.75957 4.594942,-0.89626 1.520298,-0.21226 3.031376,-0.56783 4.576426,-0.49332 1.510665,-3e-5 3.021333,-8e-5 4.531998,-1.4e-4 1.50895,-3e-5 3.017901,-1.7e-4 4.526851,0.001 1.57919,0.002 3.158377,0.005 4.737547,0.0136 1.974059,0.01 3.948507,0.0282 5.922333,-0.013 1.679041,-0.0442 3.381185,-0.0802 5.005028,-0.55812 1.314331,-0.4338 2.573877,-1.06849 3.970567,-1.20438 1.494288,-0.23657 2.959865,-0.60868 4.430861,-0.95728 3.503157,-1.27395 9.049941,-5.07292 -7.636198,4.66242 -1.168291,0.68163 2.911108,-1.72503 1.630606,-1.20161 0.871575,-1.03349 1.864545,-1.92361 2.731868,-2.9583 1.058505,-1.07346 1.876761,-2.39979 2.676446,-3.67003 0.448167,-1.29157 1.202671,-2.37391 1.78104,-3.60774 0.336066,-0.56534 0.478102,-1.17261 0.800597,-1.74461 0.70058,-1.24259 -0.0052,0.13468 0.762344,-1.02441 0.12746,-0.19247 0.213535,-0.40935 0.320302,-0.61403 0.775264,-1.22883 0.864526,-2.67386 1.510377,-3.97164 0.440592,-1.48609 1.010488,-2.917253 1.277606,-4.454363 0.216572,-1.335778 0.657794,-2.62313 0.514919,-3.994537 0.0047,-1.513996 0.01564,-3.028124 -0.0046,-4.542051 -0.03725,-1.60214 -0.103407,-3.212854 -0.477162,-4.778695 -0.463079,-1.770491 -1.093092,-3.497125 -1.887858,-5.146599 -0.834866,-1.923999 -2.010082,-3.700835 -3.396181,-5.274315 -1.209569,-1.328272 -2.438646,-2.673633 -3.933896,-3.685786 -1.393952,-1.040257 -2.86924,-1.973805 -4.483267,-2.638393 -1.546008,-0.803899 -3.022492,-1.739328 -4.616053,-2.445359 -1.600753,-0.752181 -3.256013,-1.307073 -5.031319,-1.467072 -1.500712,-0.190595 -3.007358,-0.156257 -4.516274,-0.0679 -1.346557,0.101857 -2.685277,0.278889 -3.951046,0.778846 -1.428412,0.471239 -2.913605,0.770673 -4.352187,1.211487 -1.570186,0.382408 -3.169407,0.674839 -4.687099,1.240711 -1.808176,0.705419 -3.586914,1.464035 -5.358688,2.25629 -1.5356,0.645927 -3.120705,1.199615 -4.557459,2.056384 -1.298022,0.667713 -2.640367,1.205394 -4.029181,1.658191 -1.370753,0.546902 -2.766435,1.046329 -4.212288,1.354841 -1.997432,0.494933 -4.029017,0.842275 -6.017683,1.377556 -2.003912,0.467122 -4.013512,0.946928 -5.971357,1.580608 0,0 8.866465,-6.888324 8.866465,-6.888324 z"
       inkscape:connector-curvature="0"
       style="stroke-width:0.26458332;fill:#333333" />
    <path
       id="path3717"
       d="m 148.27843,63.570482 c -1.42214,-2.039229 -3.34055,-3.620702 -5.21835,-5.216118 -2.16631,-1.539168 -4.37745,-2.994287 -6.6641,-4.347554 -1.87881,-1.002032 -3.94017,-1.4313 -6.03903,-1.626211 -1.64533,-0.102484 -3.29547,-0.07893 -4.94311,-0.07328 -2.03249,-0.0541 -4.03288,-0.01894 -6.04196,0.286652 -4.39569,0.623207 -11.75018,5.661856 5.3187,-3.994684 -1.06886,0.576871 -2.03829,1.29564 -2.74653,2.286386 -0.90814,1.174514 -1.74404,2.381951 -2.49338,3.66454 -1.09504,1.722879 -1.86932,3.621053 -2.58971,5.524008 -0.50898,1.487519 -0.91648,3.000298 -1.30388,4.522213 -0.46958,1.235572 -0.72459,2.513346 -0.85686,3.823568 -0.0302,1.621686 -0.19485,3.220362 -0.4281,4.824185 -0.24466,1.834909 -0.67503,3.635491 -0.93146,5.469186 -0.2007,1.561401 -0.23469,3.136537 -0.25496,4.708519 -0.0113,1.509808 -0.005,3.019682 -0.003,4.529511 0.0158,1.634029 -0.0335,3.26825 0.0458,4.900559 0.24679,2.540469 0.97786,5.030394 1.79144,7.443158 0.78276,2.30754 1.89837,4.38454 3.26056,6.38703 1.16361,1.73909 2.48407,3.36331 3.81796,4.97435 1.19242,1.38588 2.3334,2.81191 3.48411,4.2329 0.93196,1.08705 1.99612,1.91449 3.27585,2.54636 1.71873,0.45009 3.38311,1.09006 5.09862,1.56607 1.65792,0.43877 3.36923,0.54508 5.07514,0.5957 1.52013,0.027 3.04062,0.0143 4.56089,0.009 1.48085,-0.34675 2.98341,-0.55206 4.49802,-0.66933 1.55705,-0.0993 3.0903,-0.49764 4.52643,-1.10126 0.80669,-0.5385 1.74978,-0.8041 2.61327,-1.21906 0.25662,-0.12332 0.98625,-0.56952 0.73907,-0.42821 -8.99397,5.1419 -11.7558,6.89149 -8.19005,4.64945 26.92357,-15.43899 1.69109,-0.96288 1.26855,-0.72174 -0.19253,0.10988 0.37647,-0.23419 0.56571,-0.34964 0.55424,-0.33813 1.07962,-0.70998 1.63527,-1.0462 1.3666,-0.85496 2.3848,-2.09191 3.36462,-3.34645 1.12855,-1.56003 2.21809,-3.14871 3.00779,-4.9091 0.52951,-1.57141 1.022,-3.15352 1.30808,-4.78837 0.29627,-1.98307 0.26,-3.96902 -0.1178,-5.93491 -0.48827,-1.868746 -1.37566,-3.494182 -2.5773,-4.986897 -1.06958,-1.460678 -2.26399,-2.77907 -3.79274,-3.758785 -1.65451,-0.870871 -3.34306,-1.434026 -5.1886,-1.704512 -1.12436,-0.09967 -2.36784,-0.257358 -3.47224,0.09469 -0.0292,0.0093 -1.45107,0.787021 -1.48542,0.805772 15.99869,-9.399 9.10269,-6.254302 6.5144,-2.544008 -0.71958,1.356262 -1.47572,2.696186 -2.16757,4.067122 -0.59826,1.363615 -1.31285,2.668778 -1.95888,4.00889 -2.78286,4.306278 -7.99277,7.110748 -12.85409,8.289178 -1.50488,0.27455 -3.04098,0.26381 -4.56499,0.26721 -1.04355,-0.003 -0.50816,5.3e-4 -1.60619,-0.0115 0,0 9.04111,-6.565731 9.04111,-6.565731 v 0 c 1.1072,-0.007 0.5701,-0.0031 1.61131,-0.01161 1.46572,-0.03162 2.95952,-0.05789 4.35704,-0.55389 3.80529,-1.720315 0.57924,-0.288777 -8.29268,4.932661 -0.28519,0.16784 2.31916,-1.43225 2.0663,-1.77731 0.81617,-1.22107 1.3298,-2.644882 2.02833,-3.936827 0.60451,-1.433086 1.47202,-2.725949 2.10146,-4.147801 2.26412,-4.739331 8.50557,-6.721144 12.46864,-8.974074 1.73145,-0.686472 3.53813,-0.708422 5.3576,-0.343892 1.93152,0.400547 3.73313,1.099259 5.43883,2.100818 1.56105,1.111816 2.86159,2.479003 3.97058,4.044865 1.29587,1.641086 2.26003,3.430381 2.81845,5.458931 0.42682,2.060459 0.58777,4.150844 0.33118,6.24763 -0.18861,1.74254 -0.74095,3.36363 -1.20243,5.04438 -0.69167,1.86502 -1.74839,3.52306 -2.89026,5.14527 -0.89678,1.35344 -1.92437,2.6541 -3.18061,3.69082 -2.15953,1.65929 1.08052,-0.77073 -1.12923,0.69383 -0.17795,0.11795 -0.30269,0.30417 -0.47708,0.42732 -5.81277,4.1049 -20.8727,11.53596 -1.8678,1.05679 -4.69375,2.82675 -9.29891,5.84907 -14.38552,7.9116 -1.53081,0.49251 -3.1164,0.79298 -4.72377,0.88821 -1.52417,0.17257 -3.02662,0.51423 -4.55956,0.58679 -1.5291,0.003 -3.05919,0.0132 -4.58712,-0.0572 -1.75525,-0.10854 -3.5051,-0.31811 -5.19293,-0.83754 -1.76741,-0.54019 -3.56898,-1.02786 -5.27543,-1.72792 -1.34808,-0.77547 -2.50196,-1.72571 -3.49157,-2.93505 -1.15001,-1.41401 -2.25179,-2.86693 -3.43965,-4.24943 -1.35083,-1.64501 -2.70314,-3.29461 -3.88979,-5.06313 -1.37612,-2.10596 -2.49907,-4.29499 -3.32254,-6.68357 -0.85382,-2.48379 -1.67169,-5.03072 -1.98768,-7.643859 -0.19768,-1.646764 -0.13721,-3.298661 -0.14233,-4.955662 -0.003,-1.514226 -0.008,-3.028469 -0.002,-4.542692 0.0136,-1.614871 0.0357,-3.232737 0.21476,-4.839526 0.23056,-1.843656 0.65336,-3.647664 0.92718,-5.482132 0.22731,-1.580271 0.47355,-3.142866 0.42636,-4.74622 0.0883,-1.375857 0.22315,-2.75948 0.74464,-4.050628 0.57452,-1.46908 0.74323,-3.098959 1.32241,-4.576794 0.67156,-1.965746 1.50155,-3.899167 2.5074,-5.714389 0.74855,-1.26859 1.35968,-2.641034 2.42021,-3.692787 0.67383,-1.120595 1.37285,-2.125051 2.55743,-2.771693 5.02499,-2.851329 8.64259,-6.081982 14.07503,-6.691947 2.04123,-0.221239 4.09016,-0.161549 6.14075,-0.184632 1.67528,-0.0049 3.35646,-0.02384 5.02202,0.188336 2.18832,0.330584 4.31285,0.936054 6.24719,2.043435 2.31945,1.388521 4.5255,2.940577 6.71199,4.52864 1.96525,1.628699 3.87826,3.316433 5.48779,5.309772 0,0 -9.6364,5.759501 -9.6364,5.759501 z"
       inkscape:connector-curvature="0"
       style="stroke-width:0.26458332;fill:#333333" />
    <text
       xml:space="preserve"
       style="font-style:normal;font-weight:normal;font-size:10.58333302px;line-height:1.25;font-family:sans-serif;letter-spacing:0px;word-spacing:0px;fill:#000000;fill-opacity:1;stroke:none;stroke-width:0.26458332"
       x="86.178574"
       y="227.45238"
       id="text4530"><tspan
         sodipodi:role="line"
         id="tspan4528"
         x="86.178574"
         y="237.10788"
         style="stroke-width:0.26458332" /></text>
    <path
       style="fill:#ff7f2a;stroke-width:0.26458332"
       id="path4532"
       d="m 9.6058465,164.92529 c 1.5613515,-1.26361 3.0086485,-2.65378 4.5701285,-3.91921 1.268583,-1.20509 2.695162,-2.21151 4.102395,-3.24292 1.471403,-1.0043 2.918433,-2.04481 4.404223,-3.02779 4.585929,-2.86283 9.011865,-6.45366 14.183535,-8.06021 0.242203,-0.10023 0.478309,-0.21671 0.72661,-0.3007 0.789575,-0.26711 1.597467,-0.48814 2.346952,-0.87129 2.180547,-1.11473 -1.053108,0.30758 1.318969,-0.69958 1.604047,-0.4858 3.012606,-1.42571 4.516543,-2.14334 1.423517,-0.75336 3.081536,-0.58043 4.569746,-1.04078 1.598525,-0.61249 3.238217,-0.94983 4.937892,-1.135 2.066854,-0.18833 4.144957,-0.21184 6.219044,-0.2319 1.697551,-0.0144 3.395107,-0.002 5.092647,0.004 2.314337,-0.0929 4.502846,0.60615 6.687582,1.25781 2.217023,0.67925 4.290909,1.70111 6.344182,2.76061 1.970458,1.04048 4.055711,1.86726 5.953326,3.03797 1.987031,1.18455 4.163893,2.01187 6.283896,2.92491 1.826636,0.6654 3.626454,1.41341 5.530403,1.83011 1.68642,0.20253 3.33612,0.59458 5.02132,0.81624 1.79041,0.2461 3.55319,0.63561 5.35546,0.8257 1.57139,0.1424 3.15034,0.15085 4.72685,0.15785 1.51121,0.002 3.02242,-0.003 4.53363,-0.005 1.74122,-0.001 3.45159,0.1743 5.11529,-0.41232 1.50365,-0.60538 3.08778,-0.87801 4.69272,-1.02085 1.7564,0.0297 3.43631,-0.43658 5.12538,-0.85331 1.78695,-0.45627 3.52051,-1.03285 5.35204,-1.3065 1.56656,-0.0635 3.06645,-0.50374 4.61367,-0.72394 1.53318,-0.16942 3.01111,-0.6553 4.47941,-1.10987 0.98796,-0.34972 2.06298,-0.29408 3.04232,-0.66468 2.80419,-1.06115 -1.59807,0.43784 1.56038,-0.61229 4.26892,-1.46561 12.30213,-6.44277 -4.40402,3.11775 34.34332,-19.77691 -4.19293,2.4152 1.53271,-0.8843 3.43604,-1.98007 6.85589,-3.98859 10.31039,-5.93627 0.73114,-0.41223 1.5259,-0.68327 2.25633,-1.12126 4.01566,-1.89641 11.64735,-6.31928 -5.13342,3.24285 4.4314,-2.50397 8.61563,-5.85825 13.59738,-7.19916 1.62715,-0.0885 3.03267,-0.82429 4.54315,-1.33401 1.47365,-0.44585 3.015,-0.51911 4.5429,-0.56694 1.51249,-0.0293 3.02539,-0.0178 4.53805,-0.013 1.51193,0.005 3.02386,0.007 4.53579,0.008 1.00793,5.3e-4 0.50396,2.6e-4 1.51189,5.3e-4 0,0 -9.05469,6.57807 -9.05469,6.57807 v 0 c -1.00813,-5.3e-4 -0.50406,-2.1e-4 -1.51222,-10e-4 -1.51227,-0.002 -3.02454,-0.005 -4.53681,-0.009 -1.50175,-0.002 -3.00463,-0.0126 -4.50507,0.0605 -1.47656,0.10014 -2.95026,0.27891 -4.33918,0.82414 -1.498,0.56341 -3.01933,0.94257 -4.57447,1.30864 -0.68215,0.25155 -1.36587,0.51425 -2.028,0.81567 -0.20624,0.0939 -0.80389,0.41789 -0.60837,0.30334 11.2833,-6.61106 11.75246,-6.90483 8.32511,-4.80835 -4.68456,2.69247 -9.22524,5.3667 -13.99812,7.80362 -3.21236,1.62493 1.60104,-0.79986 -1.5304,0.74518 -0.24401,0.1204 -0.95901,0.5142 -0.72413,0.37682 2.92662,-1.71181 11.73081,-6.80551 8.80018,-5.10057 -6.43054,3.74108 -19.54365,11.31752 -1.53025,0.90278 -5.02243,2.88202 -9.44366,5.93677 -14.82138,7.74839 -1.51909,0.55636 -3.09728,0.80036 -4.64645,1.2546 -1.49602,0.45029 -3.02591,0.79121 -4.57632,0.99052 -1.52861,0.27322 -3.04999,0.56172 -4.5947,0.73155 -1.78154,0.36448 -3.50081,0.95573 -5.27841,1.33864 -1.73043,0.41054 -3.46946,0.68667 -5.24757,0.77646 -1.56635,0.22926 -3.07303,0.66382 -4.58549,1.12415 -1.75319,0.28839 -3.5278,0.18099 -5.29922,0.20566 -1.51322,0.002 -3.0265,0.008 -4.53968,-0.006 -1.59701,-0.0242 -3.19672,-0.0663 -4.78279,-0.27102 -1.796114,-0.2478 -3.568129,-0.63504 -5.369343,-0.84788 -1.701867,-0.2715 -3.401812,-0.57142 -5.091745,-0.90462 -1.901989,-0.53505 -3.737486,-1.28148 -5.569117,-2.01684 -2.16494,-0.91774 -4.368228,-1.79575 -6.37318,-3.03645 -1.933884,-1.07968 -3.970869,-1.95911 -5.942854,-2.96627 -2.001917,-1.01486 -4.005622,-2.03942 -6.190929,-2.61345 -2.14235,-0.6219 -4.30751,-1.09518 -6.557799,-0.96196 -1.692791,-5.3e-4 -3.385592,-0.003 -5.078378,0.002 -2.042848,0.0219 -4.092324,0.053 -6.119066,0.33693 -1.684877,0.29005 -3.287789,0.81436 -4.937284,1.24602 -1.514753,0.21582 -3.018708,0.47745 -4.374846,1.23601 -1.48559,0.77764 -2.984857,1.51998 -4.546859,2.13283 -1.426138,0.73794 -2.946625,1.23081 -4.444481,1.80073 -3.818572,1.72159 -0.743691,0.36387 8.144557,-4.81607 0.251582,-0.14661 -0.515511,0.27171 -0.764399,0.42285 -0.535895,0.32543 -1.092658,0.61583 -1.626534,0.94456 -0.258297,0.15904 -0.487389,0.36125 -0.731084,0.54187 -1.482341,0.99796 -2.977742,1.97606 -4.417007,3.03531 -2.008119,1.20002 0.319064,-0.25656 -1.477894,1.06978 -0.897573,0.6625 -1.914946,1.19261 -2.663853,2.04954 -1.491188,1.31578 -3.115144,2.48279 -4.498422,3.92367 0,0 -10.4187465,4.18113 -10.4187465,4.18113 z"
       inkscape:connector-curvature="0" />
    <path
       style="fill:#ff7f2a;stroke-width:0.26458332"
       id="path4534"
       d="m 20.09483,48.446417 c 0.263978,-0.115964 0.521834,-0.247005 0.791934,-0.347893 0.724839,-0.270735 1.496453,-0.403685 2.220368,-0.676881 1.116785,-0.421457 2.140642,-1.12364 3.18281,-1.695727 3.822948,-1.82992 2.868377,-1.401049 -7.742979,4.484772 -0.261524,0.14506 0.491518,-0.341075 0.730523,-0.520833 0.608484,-0.457649 1.156621,-0.983742 1.726673,-1.486828 0.188208,-0.159407 0.352995,-0.351547 0.564625,-0.478219 9.776813,-5.851948 16.56654,-9.540234 1.15508,-0.750144 -0.19813,0.113006 0.380665,-0.251418 0.569193,-0.379804 0.993273,-0.676412 0.294749,-0.235789 1.30208,-0.844492 4.280403,-3.093818 8.553365,-6.612321 13.739024,-8.00999 1.703025,-0.502021 3.356483,-1.134957 5.02004,-1.757979 1.15357,-0.490903 2.422655,-0.453784 3.630134,-0.675558 0.510481,-0.09376 1.001254,-0.273958 1.503195,-0.406014 1.441329,-0.360881 2.928218,-0.43271 4.406906,-0.4602 1.983652,-0.02572 3.967591,-0.0108 5.951373,-0.01265 1.964219,-0.0076 3.928417,0.0051 5.892633,0.006 2.145014,-0.122772 4.185907,0.532969 6.2493,0.991037 1.80323,0.404304 3.565086,0.885547 5.406951,1.098608 1.940216,0.184409 3.84562,0.598432 5.789972,0.776695 2.048383,0.151469 4.103881,0.15974 6.15678,0.164269 1.743715,-0.0021 3.487407,-0.01204 5.231114,-0.01709 1.507559,-0.07056 3.041859,0.151112 4.526515,-0.148577 1.406348,-0.38763 2.472366,-0.926856 3.953386,-1.175699 1.45081,-0.271021 2.87106,-0.640321 4.34816,-0.805503 1.54904,-0.204782 3.05336,-0.607735 4.62068,-0.741008 1.99731,-0.05678 3.96894,-0.164166 5.95113,-0.406715 2.04028,-0.08844 3.99634,-0.656021 5.99987,-0.990317 0.9822,-0.431662 2.0767,-0.484711 3.09307,-0.771784 0.4305,-0.121592 0.83134,-0.331163 1.25259,-0.48169 0.21183,-0.05758 0.42882,-0.09876 0.63549,-0.172752 1.67695,-0.600445 -0.49543,0.0444 1.27262,-0.508923 0.69445,-0.217329 1.35164,-0.304057 2.01809,-0.604306 1.50091,-0.533487 3.10642,-0.52283 4.64884,-0.839123 1.88979,-0.617442 3.82836,-1.033095 5.79973,-1.271612 1.48558,0.02622 2.86785,-0.482428 4.31835,-0.710152 1.4217,-0.181234 2.85739,-0.19268 4.28832,-0.206848 1.64608,-0.01061 3.29218,0.0011 4.93822,0.01185 1.88564,-0.137951 3.71367,0.120885 5.56776,0.40712 1.5899,0.340278 3.00592,1.091348 4.43884,1.821987 1.59127,0.618378 3.05079,1.550461 4.60952,2.255602 1.72155,0.44841 3.27546,1.265827 4.75454,2.245354 1.65686,1.093719 3.08255,2.468282 4.60733,3.732099 1.43486,1.287571 2.95928,2.469443 4.34923,3.805081 0,0 -9.50957,5.858444 -9.50957,5.858444 v 0 c -1.38032,-1.30634 -2.8558,-2.507282 -4.29073,-3.752702 -1.4843,-1.24097 -2.89222,-2.576073 -4.54148,-3.604429 -1.48468,-0.901155 -3.0579,-1.550479 -4.69284,-2.124826 -1.54148,-0.7721 -3.04966,-1.61711 -4.64753,-2.270879 -1.33541,-0.694132 -2.7161,-1.305611 -4.21692,-1.535198 -1.80974,-0.274563 -3.61783,-0.348403 -5.44886,-0.285146 -1.65422,0.0074 -3.30857,0.006 -4.96263,0.03231 -1.40277,0.03693 -2.81198,0.08703 -4.19237,0.362243 -1.42853,0.298363 -2.84966,0.555371 -4.31027,0.645957 -1.95623,0.311975 -3.85448,0.846751 -5.77961,1.302533 -1.5474,0.223128 -3.10628,0.418624 -4.56719,1.013677 -1.33701,0.355621 -2.62369,0.842867 -3.93723,1.273656 -1.44432,0.458997 -2.94965,0.730192 -4.41857,1.098275 -1.98882,0.375028 -3.97246,0.755862 -5.99527,0.906537 -1.99456,0.229211 -3.99874,0.218112 -5.99416,0.43724 -1.54622,0.233007 -3.063902,0.620601 -4.622719,0.770474 -1.44843,0.238718 -2.862847,0.626044 -4.307721,0.883761 -1.338178,0.362691 -2.601132,0.99359 -4.004685,1.081318 -1.5322,0.07168 -3.06672,0.02453 -4.600231,0.03858 -1.732788,-1.8e-4 -3.465608,-0.0011 -5.198327,-0.01826 -2.078435,-0.0244 -4.161563,-0.03445 -6.23157,-0.244065 -1.943886,-0.227775 -3.860602,-0.639014 -5.812901,-0.801225 -1.847199,-0.283577 -3.632795,-0.80178 -5.459352,-1.187828 -2.005994,-0.479203 -4.011734,-0.935437 -6.095462,-0.791382 -1.964354,-0.0013 -3.928714,0.0073 -5.893052,-0.0057 -1.985412,-0.0041 -3.971882,-0.0081 -5.955953,0.07491 -1.445861,0.09507 -2.884993,0.253627 -4.2862,0.642668 -1.680511,0.371282 -3.427682,0.473012 -5.024503,1.173464 -1.66851,0.638646 -3.376438,1.154933 -5.060125,1.750502 -3.845277,1.671264 -0.643218,0.311335 8.188389,-4.865439 0.233518,-0.136879 -0.48617,0.239914 -0.716746,0.381699 -0.693198,0.426257 -0.707263,0.52029 -1.330735,1.042889 -0.206166,0.17281 -0.419399,0.337008 -0.629097,0.505513 -2.800009,1.984259 1.516004,-1.021392 -1.313096,0.775544 -0.196664,0.124913 -0.358497,0.297657 -0.537744,0.446485 -3.377658,1.974111 -6.755317,3.948221 -10.132976,5.922332 -2.995399,1.718705 5.952872,-3.502752 8.939115,-5.237315 0.207505,-0.120529 -0.401368,0.263146 -0.602051,0.394718 -0.583997,0.517388 -1.135745,1.078931 -1.718406,1.591987 -3.491971,3.074834 -7.911228,4.94878 -12.018571,7.120684 -2.054273,1.097084 -4.216137,1.859492 -6.406527,2.639139 0,0 8.866466,-6.888321 8.866466,-6.888321 z"
       inkscape:connector-curvature="0" />
  </g>
</svg>
